<svg width="84" height="84" viewBox="0 0 84 84" fill="none" xmlns="http://www.w3.org/2000/svg">
<g filter="url(#filter0_d_194_71)">
<path d="M48.9394 32.6591C49.6549 37.8464 40.443 44.3604 35.7476 46.9689C38.2518 50.9041 40.6665 52.1861 41.5609 52.3351C48.7158 47.8633 52.8895 39.7395 54.082 36.2365C54.7975 33.0168 53.3367 30.2741 52.5168 29.3052L46.7035 24.1626L45.3619 25.7277C44.8253 26.801 45.5855 27.8146 46.0327 28.1872C48.3581 30.6915 48.9394 32.2119 48.9394 32.6591Z" fill="url(#paint0_linear_194_71)"/>
<path d="M51.3995 17.9023C58.0178 23.6263 56.9893 31.3178 55.6478 34.4481C55.6478 31.0495 54.1571 28.7092 53.4118 27.9639L47.3749 22.5977H46.7041L44.9154 24.3865L44.2446 25.728C43.708 26.8013 44.0211 27.6658 44.2446 27.9639L46.7041 31.5414C47.4196 32.2569 47.4494 33.7773 47.3749 34.4481C46.6594 37.8467 38.8785 43.4663 35.0774 45.8512C33.2887 45.3146 32.3944 43.3917 32.1708 42.4974C33.9595 41.9608 39.7728 36.9076 42.4559 34.4481C42.4559 33.0171 41.2634 33.2556 40.6672 33.5537L33.2887 40.4851C32.2155 41.2005 31.3509 41.2304 31.0528 41.1558L29.4877 39.1435C29.1299 38.0703 29.6367 37.0567 29.9349 36.684L37.7605 29.3055C37.5817 27.5167 36.4935 28.113 35.9718 28.6347L27.9226 36.684C27.0282 36.5051 26.9537 34.5226 27.0282 33.5537C28.1014 29.6185 31.6491 26.6969 33.2887 25.728C33.6465 24.6548 32.6925 24.3865 32.1708 24.3865C30.2032 24.9231 27.4754 28.4856 26.3574 30.1998C26.5363 23.0449 31.0528 18.424 33.2887 17.008C41.1591 12.1784 48.6419 15.5919 51.3995 17.9023Z" fill="url(#paint1_linear_194_71)"/>
</g>
<ellipse cx="41.8591" cy="6.27563" rx="6.27559" ry="6.27563" fill="url(#paint2_linear_194_71)"/>
<path d="M9.04714 70.5577L6.22792 72.2236L1.53776 65.1755C1.24729 64.7483 1.04226 64.3895 0.922655 64.099C0.803051 63.8086 0.74325 63.5267 0.74325 63.2533C0.74325 62.809 0.922655 62.4588 1.28147 62.2025C1.65736 61.9462 2.15286 61.818 2.76796 61.818L3.20366 62.3819C3.54539 62.8603 3.95546 63.0995 4.43387 63.0995C4.94646 63.0995 5.36507 62.903 5.68971 62.51C6.03143 62.117 6.20229 61.5276 6.20229 60.7416C6.20229 60.0581 6.09977 59.4601 5.89474 58.9475C5.68971 58.4349 5.47613 58.0334 5.25401 57.7429H0V55.4135H13.0966V57.7429V65.6368C12.8574 65.7393 12.5498 65.8248 12.1739 65.8931C11.798 65.9615 11.3196 65.9956 10.7387 65.9956C10.1236 65.9956 9.49993 65.9102 8.86774 65.7393C8.23555 65.5685 7.68879 65.3378 7.22746 65.0473C6.91991 65.2353 6.59527 65.372 6.25355 65.4574C5.92891 65.5258 5.60427 65.5599 5.27964 65.5599H5.10023L9.04714 70.5577ZM10.3799 63.4071C11.0291 63.4071 11.5674 63.3387 11.9945 63.202C12.4388 63.0653 12.8061 62.8774 13.0966 62.6382V57.7429H8.45767C8.64562 57.9992 8.85065 58.4093 9.07277 58.9732C9.29489 59.537 9.40595 60.229 9.40595 61.0491C9.40595 61.4592 9.36324 61.8522 9.27781 62.2281C9.19238 62.5869 9.08132 62.9116 8.94463 63.202C9.16675 63.2875 9.39741 63.3473 9.63662 63.3814C9.89291 63.3985 10.1407 63.4071 10.3799 63.4071Z" fill="url(#paint3_linear_194_71)"/>
<path d="M16.0687 71.8117H13.0189V55.4389H16.0687V61.8596C16.5121 61.508 17.0165 61.2175 17.5822 60.9882C18.1631 60.7589 18.7899 60.6443 19.4625 60.6443C20.1046 60.6443 20.6626 60.7436 21.1365 60.9424C21.6257 61.1258 22.0232 61.3934 22.3289 61.745C22.6499 62.0813 22.8869 62.494 23.0398 62.9832C23.1926 63.4572 23.2691 63.9769 23.2691 64.5426V71.8117H20.2193V65.07C20.2193 64.3209 20.0664 63.7858 19.7606 63.4648C19.4549 63.1438 19.0115 62.9832 18.4306 62.9832C18.0332 62.9832 17.6204 63.0826 17.1924 63.2813C16.7796 63.4648 16.4051 63.717 16.0687 64.0381V71.8117ZM26.2568 61.8367C26.9141 61.4545 27.6097 61.164 28.3435 60.9653C29.0773 60.7513 29.8569 60.6443 30.6825 60.6443C31.3398 60.6443 31.936 60.7207 32.4711 60.8736C33.0214 61.0265 33.4877 61.2711 33.8699 61.6074C34.2673 61.9284 34.5654 62.3488 34.7642 62.8686C34.9782 63.3731 35.0852 63.9846 35.0852 64.7031V71.8117H32.7233L32.4481 70.6881H32.3564C32.0048 71.1161 31.5538 71.4525 31.0035 71.6971C30.4684 71.9416 29.8416 72.0639 29.1231 72.0639C28.5269 72.0639 27.9995 71.9799 27.5409 71.8117C27.0823 71.6283 26.6924 71.3913 26.3714 71.1008C26.0504 70.7951 25.8058 70.4358 25.6376 70.0231C25.4847 69.6103 25.4083 69.167 25.4083 68.6931C25.4083 68.0663 25.5382 67.5312 25.7981 67.0879C26.0733 66.6293 26.4478 66.2547 26.9218 65.9643C27.3957 65.6738 27.946 65.4598 28.5728 65.3222C29.2149 65.1846 29.9028 65.1158 30.6366 65.1158H32.0125V64.4508C32.0125 63.9463 31.8519 63.5795 31.5309 63.3501C31.2252 63.1055 30.7895 62.9832 30.2238 62.9832C29.7805 62.9832 29.3219 63.052 28.848 63.1896C28.3893 63.3272 27.8772 63.5489 27.3116 63.8546L26.2568 61.8367ZM32.0354 67.0191L31.0493 67.042C30.1168 67.0726 29.4671 67.2331 29.1002 67.5236C28.7333 67.7988 28.5499 68.1351 28.5499 68.5326C28.5499 69.0523 28.7027 69.4116 29.0085 69.6103C29.3295 69.7938 29.6888 69.8855 30.0862 69.8855C30.4837 69.8855 30.8583 69.7708 31.2099 69.5415C31.5768 69.3122 31.8519 69.0447 32.0354 68.7389V67.0191ZM36.2115 60.8736H39.5365L41.4857 66.0789L42.2195 68.7389H42.3112L43.0221 66.056L44.719 60.8736H47.8376L43.8246 72.2015C43.5953 72.8283 43.3354 73.4245 43.045 73.9902C42.7698 74.5711 42.4258 75.1061 42.0131 75.5953C41.6156 76.0845 41.1417 76.5202 40.5914 76.9024C40.041 77.2846 39.3913 77.598 38.6422 77.8426L37.381 75.4807C38.2371 75.1749 38.9556 74.7316 39.5365 74.1507C40.1175 73.5698 40.5149 72.8742 40.7289 72.0639L40.8207 71.7658L36.2115 60.8736ZM49.2998 61.8367C49.9572 61.4545 50.6527 61.164 51.3865 60.9653C52.1203 60.7513 52.9 60.6443 53.7255 60.6443C54.3829 60.6443 54.9791 60.7207 55.5141 60.8736C56.0645 61.0265 56.5307 61.2711 56.9129 61.6074C57.3104 61.9284 57.6085 62.3488 57.8072 62.8686C58.0212 63.3731 58.1283 63.9846 58.1283 64.7031V71.8117H55.7664L55.4912 70.6881H55.3995C55.0479 71.1161 54.5969 71.4525 54.0465 71.6971C53.5115 71.9416 52.8847 72.0639 52.1662 72.0639C51.57 72.0639 51.0426 71.9799 50.5839 71.8117C50.1253 71.6283 49.7355 71.3913 49.4145 71.1008C49.0934 70.7951 48.8488 70.4358 48.6807 70.0231C48.5278 69.6103 48.4513 69.167 48.4513 68.6931C48.4513 68.0663 48.5813 67.5312 48.8412 67.0879C49.1163 66.6293 49.4909 66.2547 49.9648 65.9643C50.4387 65.6738 50.9891 65.4598 51.6158 65.3222C52.2579 65.1846 52.9458 65.1158 53.6796 65.1158H55.0555V64.4508C55.0555 63.9463 54.895 63.5795 54.5739 63.3501C54.2682 63.1055 53.8325 62.9832 53.2669 62.9832C52.8235 62.9832 52.3649 63.052 51.891 63.1896C51.4324 63.3272 50.9203 63.5489 50.3546 63.8546L49.2998 61.8367ZM55.0784 67.0191L54.0924 67.042C53.1599 67.0726 52.5101 67.2331 52.1432 67.5236C51.7764 67.7988 51.5929 68.1351 51.5929 68.5326C51.5929 69.0523 51.7458 69.4116 52.0515 69.6103C52.3726 69.7938 52.7318 69.8855 53.1293 69.8855C53.5268 69.8855 53.9013 69.7708 54.2529 69.5415C54.6198 69.3122 54.895 69.0447 55.0784 68.7389V67.0191ZM60.8997 61.8367C61.5571 61.4545 62.2526 61.164 62.9864 60.9653C63.7202 60.7513 64.4999 60.6443 65.3254 60.6443C65.9827 60.6443 66.579 60.7207 67.114 60.8736C67.6644 61.0265 68.1306 61.2711 68.5128 61.6074C68.9103 61.9284 69.2084 62.3488 69.4071 62.8686C69.6211 63.3731 69.7282 63.9846 69.7282 64.7031V71.8117H67.3663L67.0911 70.6881H66.9994C66.6478 71.1161 66.1968 71.4525 65.6464 71.6971C65.1114 71.9416 64.4846 72.0639 63.7661 72.0639C63.1699 72.0639 62.6425 71.9799 62.1838 71.8117C61.7252 71.6283 61.3354 71.3913 61.0144 71.1008C60.6933 70.7951 60.4487 70.4358 60.2806 70.0231C60.1277 69.6103 60.0512 69.167 60.0512 68.6931C60.0512 68.0663 60.1812 67.5312 60.4411 67.0879C60.7162 66.6293 61.0908 66.2547 61.5647 65.9643C62.0386 65.6738 62.589 65.4598 63.2157 65.3222C63.8578 65.1846 64.5457 65.1158 65.2795 65.1158H66.6554V64.4508C66.6554 63.9463 66.4949 63.5795 66.1738 63.3501C65.8681 63.1055 65.4324 62.9832 64.8668 62.9832C64.4234 62.9832 63.9648 63.052 63.4909 63.1896C63.0323 63.3272 62.5202 63.5489 61.9545 63.8546L60.8997 61.8367ZM66.6783 67.0191L65.6923 67.042C64.7598 67.0726 64.11 67.2331 63.7431 67.5236C63.3763 67.7988 63.1928 68.1351 63.1928 68.5326C63.1928 69.0523 63.3457 69.4116 63.6514 69.6103C63.9725 69.7938 64.3317 69.8855 64.7292 69.8855C65.1267 69.8855 65.5012 69.7708 65.8528 69.5415C66.2197 69.3122 66.4949 69.0447 66.6783 68.7389V67.0191ZM75.3889 68.1427V71.8117H72.362V55.4389H75.3889V65.1617L79.0579 60.8736H82.7498L78.5305 65.4827L82.9562 71.8117H79.356L76.2832 67.2484L75.3889 68.1427Z" fill="url(#paint4_linear_194_71)"/>
<path d="M47.684 77.6262C47.4761 77.6086 47.2931 77.572 47.1349 77.5164C46.9797 77.4607 46.8479 77.3875 46.7395 77.2967C46.6341 77.2088 46.5536 77.1078 46.4979 76.9936C46.4452 76.8764 46.4189 76.7505 46.4189 76.6158C46.4189 76.4987 46.4394 76.3991 46.4804 76.3171C46.5214 76.2322 46.5697 76.1619 46.6253 76.1062C46.5668 76.0477 46.5126 75.9788 46.4628 75.8998C46.413 75.8207 46.3881 75.7255 46.3881 75.6142C46.3881 75.5322 46.4028 75.459 46.432 75.3946C46.4643 75.3301 46.5067 75.2774 46.5594 75.2364C46.6122 75.1925 46.6722 75.1603 46.7395 75.1398C46.8098 75.1164 46.8845 75.1046 46.9636 75.1046H47.5478V74.7137H46.1465V74.3886H48.4572V74.7137H47.952V75.4297H47.1086C47.0236 75.4297 46.9519 75.4458 46.8933 75.478C46.8347 75.5073 46.8054 75.5688 46.8054 75.6625C46.8054 75.7153 46.8157 75.765 46.8362 75.8119C46.8567 75.8558 46.8816 75.8939 46.9109 75.9261C46.9812 75.888 47.0573 75.8617 47.1393 75.847C47.2213 75.8324 47.3048 75.8251 47.3897 75.8251C47.5156 75.8251 47.6298 75.8426 47.7323 75.8778C47.8348 75.9129 47.9212 75.9613 47.9915 76.0228C48.0618 76.0843 48.116 76.1575 48.1541 76.2424C48.1921 76.3273 48.2112 76.4181 48.2112 76.5148C48.2112 76.6085 48.1907 76.6978 48.1497 76.7827C48.1116 76.8647 48.0677 76.9306 48.0179 76.9804L47.6972 76.7871C47.7294 76.752 47.7558 76.7124 47.7763 76.6685C47.7997 76.6246 47.8114 76.5763 47.8114 76.5236C47.8114 76.4796 47.8026 76.4357 47.7851 76.3918C47.7704 76.3478 47.7455 76.3098 47.7104 76.2775C47.6782 76.2424 47.6342 76.2146 47.5786 76.1941C47.523 76.1736 47.4556 76.1633 47.3765 76.1633C47.2154 76.1633 47.0851 76.2058 46.9855 76.2907C46.886 76.3757 46.8362 76.4884 46.8362 76.629C46.8362 76.7139 46.8508 76.793 46.8801 76.8662C46.9123 76.9394 46.965 77.0053 47.0383 77.0639C47.1115 77.1225 47.2081 77.1722 47.3282 77.2132C47.4512 77.2542 47.6035 77.2835 47.7851 77.3011L47.684 77.6262ZM49.8621 77.0024L49.5019 77.2264L48.6672 75.992C48.6204 75.9246 48.5867 75.8705 48.5662 75.8295C48.5486 75.7855 48.5398 75.746 48.5398 75.7109C48.5398 75.6435 48.5662 75.5923 48.6189 75.5571C48.6716 75.519 48.736 75.5 48.8122 75.5L48.9 75.6142C48.9323 75.6552 48.9674 75.686 49.0055 75.7065C49.0435 75.727 49.0889 75.7372 49.1417 75.7372C49.2442 75.7372 49.332 75.6977 49.4052 75.6186C49.4784 75.5366 49.5151 75.4209 49.5151 75.2716C49.5151 75.1456 49.4946 75.0358 49.4536 74.9421C49.4155 74.8484 49.373 74.7722 49.3262 74.7137H48.3773V74.3886H50.2838V74.7137H49.7347C49.7757 74.7635 49.8182 74.8411 49.8621 74.9465C49.909 75.049 49.9324 75.1676 49.9324 75.3023C49.9324 75.4224 49.9133 75.5308 49.8753 75.6274C49.8372 75.7211 49.7859 75.8016 49.7215 75.869C49.6571 75.9334 49.5809 75.9832 49.4931 76.0184C49.4052 76.0535 49.313 76.0711 49.2163 76.0711C49.1929 76.0711 49.1739 76.0696 49.1592 76.0667L49.8621 77.0024ZM51.1828 77.3406C51.1828 77.2791 51.2077 77.222 51.2575 77.1693C51.3073 77.1137 51.3702 77.0858 51.4464 77.0858C51.5255 77.0858 51.5884 77.1137 51.6353 77.1693C51.6821 77.222 51.7056 77.2791 51.7056 77.3406C51.7056 77.4139 51.6807 77.4754 51.6309 77.5251C51.584 77.5779 51.5225 77.6042 51.4464 77.6042C51.3702 77.6042 51.3073 77.5779 51.2575 77.5251C51.2077 77.4754 51.1828 77.4139 51.1828 77.3406ZM52.8038 75.6186C52.8624 75.6538 52.9195 75.7167 52.9751 75.8075C53.0337 75.8954 53.063 76.0081 53.063 76.1458C53.063 76.2541 53.0425 76.3537 53.0015 76.4445C52.9605 76.5323 52.9034 76.6085 52.8302 76.6729C52.757 76.7373 52.6706 76.7871 52.571 76.8223C52.4714 76.8574 52.3631 76.875 52.2459 76.875C52.12 76.875 52.0058 76.8574 51.9033 76.8223C51.8037 76.7871 51.7144 76.7403 51.6353 76.6817C51.5591 76.6202 51.4918 76.5499 51.4332 76.4708C51.3776 76.3888 51.3322 76.301 51.297 76.2073L51.5914 76.0491C51.6646 76.2014 51.7495 76.32 51.8462 76.4049C51.9457 76.4899 52.0702 76.5323 52.2195 76.5323C52.3338 76.5323 52.4333 76.4987 52.5183 76.4313C52.6032 76.361 52.6457 76.2556 52.6457 76.115C52.6457 75.9451 52.5915 75.8207 52.4831 75.7416C52.3748 75.6596 52.2283 75.6186 52.0438 75.6186H51.8945V75.2891H53.4979V74.7137H51.1872V74.3886H54.293V74.7137H53.9064V77.1693H53.4979V75.6186H52.8038ZM55.6 75.8031C55.5356 75.888 55.4536 75.9539 55.354 76.0008C55.2574 76.0477 55.1534 76.0711 55.0421 76.0711C55.0187 76.0711 54.9996 76.0696 54.985 76.0667L55.7757 77.0024L55.4155 77.2264L54.493 75.992C54.4432 75.9246 54.4095 75.8705 54.392 75.8295C54.3744 75.7855 54.3656 75.746 54.3656 75.7109C54.3656 75.6435 54.392 75.5923 54.4447 75.5571C54.4974 75.519 54.5618 75.5 54.638 75.5L54.7258 75.6142C54.758 75.6552 54.7932 75.686 54.8312 75.7065C54.8693 75.727 54.9147 75.7372 54.9674 75.7372C55.0699 75.7372 55.1578 75.6977 55.231 75.6186C55.3042 75.5366 55.3408 75.4209 55.3408 75.2716C55.3408 75.1456 55.3203 75.0358 55.2793 74.9421C55.2413 74.8484 55.1988 74.7722 55.1519 74.7137H54.2031V74.3886H57.4231V74.7137H55.5605C55.6015 74.7635 55.6439 74.8396 55.6879 74.9421C55.7347 75.0446 55.7582 75.1632 55.7582 75.2979C55.7582 75.3214 55.7567 75.3433 55.7538 75.3638C55.7538 75.3814 55.7508 75.4004 55.745 75.4209C55.8006 75.3477 55.8738 75.2921 55.9646 75.254C56.0554 75.2159 56.155 75.1969 56.2633 75.1969C56.4449 75.1969 56.6001 75.254 56.729 75.3682C56.8578 75.4795 56.9574 75.6669 57.0277 75.9305L57.2298 76.6861L56.852 76.7915L56.6192 75.9788C56.5752 75.8207 56.524 75.7065 56.4654 75.6362C56.4068 75.5659 56.3292 75.5307 56.2326 75.5307C56.1535 75.5307 56.0906 75.5542 56.0437 75.601C55.9968 75.6479 55.9734 75.7094 55.9734 75.7855C55.9734 75.8793 56.0071 75.9569 56.0744 76.0184C56.1418 76.0769 56.215 76.1092 56.2941 76.115L56.2018 76.4269C56.1228 76.424 56.0466 76.4064 55.9734 76.3742C55.9031 76.339 55.8402 76.2937 55.7845 76.238C55.7289 76.1824 55.6835 76.1179 55.6483 76.0447C55.6161 75.9715 55.6 75.891 55.6 75.8031ZM58.8195 77.0024L58.4593 77.2264L57.6247 75.992C57.5778 75.9246 57.5441 75.8705 57.5236 75.8295C57.5061 75.7855 57.4973 75.746 57.4973 75.7109C57.4973 75.6435 57.5236 75.5923 57.5763 75.5571C57.6291 75.519 57.6935 75.5 57.7696 75.5L57.8575 75.6142C57.8897 75.6552 57.9249 75.686 57.9629 75.7065C58.001 75.727 58.0464 75.7372 58.0991 75.7372C58.2016 75.7372 58.2895 75.6977 58.3627 75.6186C58.4359 75.5366 58.4725 75.4209 58.4725 75.2716C58.4725 75.1456 58.452 75.0358 58.411 74.9421C58.3729 74.8484 58.3305 74.7722 58.2836 74.7137H57.3347V74.3886H59.2413V74.7137H58.6921C58.7331 74.7635 58.7756 74.8411 58.8195 74.9465C58.8664 75.049 58.8898 75.1676 58.8898 75.3023C58.8898 75.4224 58.8708 75.5308 58.8327 75.6274C58.7946 75.7211 58.7434 75.8016 58.679 75.869C58.6145 75.9334 58.5384 75.9832 58.4505 76.0184C58.3627 76.0535 58.2704 76.0711 58.1738 76.0711C58.1504 76.0711 58.1313 76.0696 58.1167 76.0667L58.8195 77.0024ZM60.1585 75.6406C59.9915 75.6406 59.87 75.683 59.7938 75.768C59.7177 75.85 59.6796 75.9598 59.6796 76.0974C59.6796 76.2556 59.7118 76.4108 59.7763 76.5631C59.8436 76.7154 59.9359 76.8794 60.053 77.0551L59.6972 77.2264C59.5713 77.0507 59.4673 76.8691 59.3853 76.6817C59.3033 76.4913 59.2623 76.2893 59.2623 76.0755C59.2623 75.8207 59.3341 75.6274 59.4776 75.4956C59.624 75.3638 59.8231 75.2979 60.075 75.2979H60.7823V74.7137H59.0207V74.3886H61.5774V74.7137H61.1908V77.1693H60.7823V75.6406H60.1585ZM63.994 75.645C63.9354 75.5776 63.8695 75.5293 63.7963 75.5C63.726 75.4678 63.6455 75.4517 63.5547 75.4517C63.4961 75.4517 63.439 75.4619 63.3833 75.4824C63.3277 75.5 63.2794 75.5278 63.2384 75.5659C63.1974 75.601 63.1637 75.6464 63.1373 75.7021C63.1139 75.7548 63.1022 75.8178 63.1022 75.891C63.1022 76.0403 63.1432 76.156 63.2252 76.238C63.3072 76.32 63.4126 76.361 63.5415 76.361C63.6001 76.361 63.6557 76.3522 63.7084 76.3347C63.7641 76.3171 63.8124 76.2893 63.8534 76.2512C63.8973 76.2131 63.931 76.1648 63.9544 76.1062C63.9808 76.0477 63.994 75.9774 63.994 75.8954V75.645ZM64.3893 77.1693H63.9896V76.5016C63.9456 76.5602 63.8797 76.6085 63.7919 76.6466C63.707 76.6846 63.6089 76.7037 63.4976 76.7037C63.3921 76.7037 63.2896 76.6861 63.1901 76.6509C63.0934 76.6129 63.007 76.5587 62.9309 76.4884C62.8577 76.4181 62.7976 76.3317 62.7508 76.2292C62.7068 76.1238 62.6849 76.0023 62.6849 75.8646C62.6849 75.7416 62.7054 75.6333 62.7464 75.5395C62.7903 75.4458 62.8474 75.3682 62.9177 75.3067C62.9909 75.2423 63.0744 75.194 63.1681 75.1617C63.2618 75.1295 63.3614 75.1134 63.4668 75.1134C63.5722 75.1134 63.6704 75.131 63.7611 75.1661C63.8519 75.1984 63.9281 75.2481 63.9896 75.3155V74.7137H62.4784V74.3886H65.9664V74.7137H64.3893V75.3638C64.4391 75.2965 64.5123 75.2408 64.609 75.1969C64.7056 75.153 64.8154 75.131 64.9384 75.131C65.0439 75.131 65.142 75.1471 65.2328 75.1793C65.3265 75.2115 65.407 75.2599 65.4744 75.3243C65.5447 75.3887 65.6003 75.4678 65.6413 75.5615C65.6823 75.6523 65.7028 75.7563 65.7028 75.8734C65.7028 76.0081 65.6808 76.1253 65.6369 76.2248C65.593 76.3244 65.533 76.4064 65.4568 76.4708C65.3807 76.5353 65.2913 76.5836 65.1888 76.6158C65.0893 76.6451 64.9838 76.6597 64.8725 76.6597C64.8403 76.6597 64.8008 76.6583 64.7539 76.6553C64.71 76.6495 64.6763 76.6422 64.6529 76.6334L64.71 76.3083C64.7334 76.3142 64.7554 76.3171 64.7759 76.3171C64.7993 76.3171 64.8228 76.3171 64.8462 76.3171C64.9692 76.3171 65.0732 76.2819 65.1581 76.2117C65.243 76.1414 65.2855 76.0272 65.2855 75.869C65.2855 75.7431 65.2474 75.645 65.1713 75.5747C65.0981 75.5044 64.997 75.4692 64.8682 75.4692C64.71 75.4692 64.5899 75.5176 64.5079 75.6142C64.4289 75.7079 64.3893 75.8339 64.3893 75.992V77.1693ZM66.1808 74.7137H65.8074V74.3886H66.1149C66.0769 74.3183 66.0241 74.2407 65.9568 74.1558C65.8894 74.0679 65.8074 73.9874 65.7108 73.9142C65.6141 73.838 65.5043 73.775 65.3813 73.7253C65.2583 73.6755 65.1207 73.6506 64.9684 73.6506C64.8454 73.6506 64.7414 73.6652 64.6565 73.6945C64.5715 73.7209 64.5027 73.7589 64.45 73.8087C64.3973 73.8556 64.3592 73.9112 64.3358 73.9757C64.3124 74.0372 64.3006 74.1045 64.3006 74.1777C64.3006 74.2217 64.305 74.2641 64.3138 74.3051C64.3197 74.3432 64.3314 74.3783 64.349 74.4106L64.0195 74.5072L63.9756 74.4413C63.9434 74.4003 63.9185 74.3505 63.9009 74.2919C63.8833 74.2304 63.8745 74.1689 63.8745 74.1074C63.8745 74.002 63.8965 73.901 63.9404 73.8043C63.9844 73.7048 64.0502 73.6184 64.1381 73.5451C64.226 73.4719 64.3373 73.4134 64.472 73.3694C64.6038 73.3255 64.759 73.3035 64.9376 73.3035C65.1661 73.3035 65.3696 73.3416 65.5482 73.4178C65.724 73.491 65.8762 73.5832 66.0051 73.6945C66.134 73.8029 66.2409 73.92 66.3258 74.0459C66.4107 74.1719 66.4751 74.2861 66.5191 74.3886H66.9628V74.7137H66.5894V77.1693H66.1808V74.7137ZM70.2607 74.3886V74.7137H69.9313V75.399C69.9313 75.6391 69.883 75.8295 69.7863 75.97C69.6897 76.1106 69.5432 76.2263 69.347 76.3171L69.1186 75.992C69.388 75.8807 69.5227 75.6816 69.5227 75.3946V74.7137H68.6134V75.5659C68.6134 75.768 68.6354 75.9393 68.6793 76.0799C68.7262 76.2204 68.7964 76.3405 68.8902 76.4401C68.9839 76.5367 69.1025 76.6187 69.246 76.6861C69.3895 76.7534 69.5593 76.8135 69.7556 76.8662L69.5974 77.2132C69.1288 77.1049 68.7789 76.9218 68.5475 76.6641C68.3191 76.4035 68.2049 76.0447 68.2049 75.5879V74.7137H67.8666V74.3886H70.2607ZM71.6902 75.645C71.6316 75.5776 71.5657 75.5293 71.4925 75.5C71.4222 75.4678 71.3417 75.4517 71.2509 75.4517C71.1923 75.4517 71.1352 75.4619 71.0795 75.4824C71.0239 75.5 70.9756 75.5278 70.9346 75.5659C70.8936 75.601 70.8599 75.6464 70.8335 75.7021C70.8101 75.7548 70.7984 75.8178 70.7984 75.891C70.7984 76.0403 70.8394 76.156 70.9214 76.238C71.0034 76.32 71.1088 76.361 71.2377 76.361C71.2963 76.361 71.3519 76.3522 71.4046 76.3347C71.4603 76.3171 71.5086 76.2893 71.5496 76.2512C71.5935 76.2131 71.6272 76.1648 71.6506 76.1062C71.677 76.0477 71.6902 75.9774 71.6902 75.8954V75.645ZM72.0855 77.1693H71.6858V76.5016C71.6418 76.5602 71.5759 76.6085 71.4881 76.6466C71.4032 76.6846 71.3051 76.7037 71.1938 76.7037C71.0883 76.7037 70.9858 76.6861 70.8863 76.6509C70.7896 76.6129 70.7032 76.5587 70.6271 76.4884C70.5539 76.4181 70.4938 76.3317 70.447 76.2292C70.403 76.1238 70.3811 76.0023 70.3811 75.8646C70.3811 75.7416 70.4016 75.6333 70.4426 75.5395C70.4865 75.4458 70.5436 75.3682 70.6139 75.3067C70.6871 75.2423 70.7706 75.194 70.8643 75.1617C70.958 75.1295 71.0576 75.1134 71.163 75.1134C71.2684 75.1134 71.3666 75.131 71.4573 75.1661C71.5481 75.1984 71.6243 75.2481 71.6858 75.3155V74.7137H70.1746V74.3886H73.6626V74.7137H72.0855V75.3638C72.1353 75.2965 72.2085 75.2408 72.3052 75.1969C72.4018 75.153 72.5116 75.131 72.6346 75.131C72.7401 75.131 72.8382 75.1471 72.929 75.1793C73.0227 75.2115 73.1032 75.2599 73.1706 75.3243C73.2409 75.3887 73.2965 75.4678 73.3375 75.5615C73.3785 75.6523 73.399 75.7563 73.399 75.8734C73.399 76.0081 73.377 76.1253 73.3331 76.2248C73.2892 76.3244 73.2292 76.4064 73.153 76.4708C73.0769 76.5353 72.9875 76.5836 72.885 76.6158C72.7855 76.6451 72.68 76.6597 72.5688 76.6597C72.5365 76.6597 72.497 76.6583 72.4501 76.6553C72.4062 76.6495 72.3725 76.6422 72.3491 76.6334L72.4062 76.3083C72.4296 76.3142 72.4516 76.3171 72.4721 76.3171C72.4955 76.3171 72.519 76.3171 72.5424 76.3171C72.6654 76.3171 72.7694 76.2819 72.8543 76.2117C72.9392 76.1414 72.9817 76.0272 72.9817 75.869C72.9817 75.7431 72.9436 75.645 72.8675 75.5747C72.7943 75.5044 72.6932 75.4692 72.5644 75.4692C72.4062 75.4692 72.2861 75.5176 72.2041 75.6142C72.1251 75.7079 72.0855 75.8339 72.0855 75.992V77.1693ZM76.1112 75.6186C76.1698 75.6538 76.2269 75.7167 76.2825 75.8075C76.3411 75.8954 76.3704 76.0081 76.3704 76.1458C76.3704 76.2541 76.3499 76.3537 76.3089 76.4445C76.2679 76.5323 76.2108 76.6085 76.1376 76.6729C76.0643 76.7373 75.9779 76.7871 75.8784 76.8223C75.7788 76.8574 75.6704 76.875 75.5533 76.875C75.4274 76.875 75.3132 76.8574 75.2107 76.8223C75.1111 76.7871 75.0218 76.7403 74.9427 76.6817C74.8665 76.6202 74.7992 76.5499 74.7406 76.4708C74.685 76.3888 74.6396 76.301 74.6044 76.2073L74.8988 76.0491C74.972 76.2014 75.0569 76.32 75.1535 76.4049C75.2531 76.4899 75.3776 76.5323 75.5269 76.5323C75.6412 76.5323 75.7407 76.4987 75.8257 76.4313C75.9106 76.361 75.9531 76.2556 75.9531 76.115C75.9531 75.9451 75.8989 75.8207 75.7905 75.7416C75.6822 75.6596 75.5357 75.6186 75.3512 75.6186H75.2019V75.2891H76.8053V74.7137H74.4946V74.3886H77.6004V74.7137H77.2138V77.1693H76.8053V75.6186H76.1112ZM78.2001 75.8295C78.2411 75.7973 78.2748 75.7445 78.3012 75.6713C78.3275 75.5952 78.3407 75.5102 78.3407 75.4165C78.3407 75.276 78.3144 75.1471 78.2616 75.03C78.2089 74.9099 78.1401 74.8045 78.0552 74.7137H77.5104V74.3886H80.1067V74.7137H79.7201V77.1693H79.3115V74.7137H78.4813C78.5428 74.7781 78.6043 74.8762 78.6658 75.008C78.7273 75.1369 78.758 75.2965 78.758 75.4868C78.758 75.6245 78.7405 75.746 78.7053 75.8514C78.6702 75.9539 78.6233 76.0403 78.5648 76.1106C78.5062 76.1809 78.4388 76.2351 78.3627 76.2732C78.2895 76.3083 78.2119 76.3259 78.1299 76.3259C78.0127 76.3259 77.9102 76.2907 77.8223 76.2204C77.7374 76.1472 77.695 76.052 77.695 75.9349C77.695 75.8441 77.7228 75.7753 77.7784 75.7284C77.837 75.6786 77.9 75.6538 77.9673 75.6538L78.2001 75.8295ZM81.5576 77.6262C81.3497 77.6086 81.1666 77.572 81.0085 77.5164C80.8533 77.4607 80.7215 77.3875 80.6131 77.2967C80.5077 77.2088 80.4272 77.1078 80.3715 76.9936C80.3188 76.8764 80.2924 76.7505 80.2924 76.6158C80.2924 76.4987 80.3129 76.3991 80.3539 76.3171C80.3949 76.2322 80.4433 76.1619 80.4989 76.1062C80.4403 76.0477 80.3862 75.9788 80.3364 75.8998C80.2866 75.8207 80.2617 75.7255 80.2617 75.6142C80.2617 75.5322 80.2763 75.459 80.3056 75.3946C80.3378 75.3301 80.3803 75.2774 80.433 75.2364C80.4857 75.1925 80.5458 75.1603 80.6131 75.1398C80.6834 75.1164 80.7581 75.1046 80.8372 75.1046H81.4214V74.7137H80.0201V74.3886H82.3308V74.7137H81.8256V75.4297H80.9821C80.8972 75.4297 80.8255 75.4458 80.7669 75.478C80.7083 75.5073 80.679 75.5688 80.679 75.6625C80.679 75.7153 80.6893 75.765 80.7098 75.8119C80.7303 75.8558 80.7552 75.8939 80.7845 75.9261C80.8547 75.888 80.9309 75.8617 81.0129 75.847C81.0949 75.8324 81.1783 75.8251 81.2633 75.8251C81.3892 75.8251 81.5034 75.8426 81.6059 75.8778C81.7084 75.9129 81.7948 75.9613 81.8651 76.0228C81.9354 76.0843 81.9896 76.1575 82.0276 76.2424C82.0657 76.3273 82.0848 76.4181 82.0848 76.5148C82.0848 76.6085 82.0643 76.6978 82.0233 76.7827C81.9852 76.8647 81.9413 76.9306 81.8915 76.9804L81.5708 76.7871C81.603 76.752 81.6294 76.7124 81.6499 76.6685C81.6733 76.6246 81.685 76.5763 81.685 76.5236C81.685 76.4796 81.6762 76.4357 81.6586 76.3918C81.644 76.3478 81.6191 76.3098 81.584 76.2775C81.5517 76.2424 81.5078 76.2146 81.4522 76.1941C81.3965 76.1736 81.3292 76.1633 81.2501 76.1633C81.089 76.1633 80.9587 76.2058 80.8591 76.2907C80.7596 76.3757 80.7098 76.4884 80.7098 76.629C80.7098 76.7139 80.7244 76.793 80.7537 76.8662C80.7859 76.9394 80.8386 77.0053 80.9118 77.0639C80.9851 77.1225 81.0817 77.1722 81.2018 77.2132C81.3248 77.2542 81.4771 77.2835 81.6586 77.3011L81.5576 77.6262Z" fill="url(#paint5_linear_194_71)"/>
<defs>
<filter id="filter0_d_194_71" x="25.8554" y="14.1826" width="31.2863" height="38.7801" filterUnits="userSpaceOnUse" color-interpolation-filters="sRGB">
<feFlood flood-opacity="0" result="BackgroundImageFix"/>
<feColorMatrix in="SourceAlpha" type="matrix" values="0 0 0 0 0 0 0 0 0 0 0 0 0 0 0 0 0 0 127 0" result="hardAlpha"/>
<feOffset dy="0.125512"/>
<feGaussianBlur stdDeviation="0.251024"/>
<feComposite in2="hardAlpha" operator="out"/>
<feColorMatrix type="matrix" values="0 0 0 0 0 0 0 0 0 0 0 0 0 0 0 0 0 0 0.35 0"/>
<feBlend mode="normal" in2="BackgroundImageFix" result="effect1_dropShadow_194_71"/>
<feBlend mode="normal" in="SourceGraphic" in2="effect1_dropShadow_194_71" result="shape"/>
</filter>
<linearGradient id="paint0_linear_194_71" x1="45.0105" y1="24.1626" x2="45.0105" y2="52.3351" gradientUnits="userSpaceOnUse">
<stop stop-color="#98389C"/>
<stop offset="1" stop-color="#573C9D"/>
</linearGradient>
<linearGradient id="paint1_linear_194_71" x1="41.4985" y1="14.5591" x2="41.4985" y2="45.8512" gradientUnits="userSpaceOnUse">
<stop stop-color="#DF476D"/>
<stop offset="1" stop-color="#F77430"/>
</linearGradient>
<linearGradient id="paint2_linear_194_71" x1="41.8591" y1="0" x2="41.8591" y2="12.5513" gradientUnits="userSpaceOnUse">
<stop stop-color="#98389C"/>
<stop offset="1" stop-color="#573C9D"/>
</linearGradient>
<linearGradient id="paint3_linear_194_71" x1="6.54829" y1="55.4135" x2="6.54829" y2="72.2236" gradientUnits="userSpaceOnUse">
<stop stop-color="#DF476D"/>
<stop offset="1" stop-color="#F77430"/>
</linearGradient>
<linearGradient id="paint4_linear_194_71" x1="15.5829" y1="53.0009" x2="84.2633" y2="66.9375" gradientUnits="userSpaceOnUse">
<stop stop-color="#E24C67"/>
<stop offset="1" stop-color="#683C9D"/>
</linearGradient>
<linearGradient id="paint5_linear_194_71" x1="64.6904" y1="72.1693" x2="64.6904" y2="79.1693" gradientUnits="userSpaceOnUse">
<stop stop-color="#98389C"/>
<stop offset="1" stop-color="#573C9D"/>
</linearGradient>
</defs>
</svg>
